<svg xmlns="http://www.w3.org/2000/svg" xmlns:xlink="http://www.w3.org/1999/xlink" version="1.1" id="Capa_1" x="0px" y="0px" viewBox="0 0 125 70" width="125px" height="70px" style="enable-background:new 0 0 125 70;" xml:space="preserve"><g><g><path d="M87.1,40.3c-0.5,0-1,0.4-1.2,0.9c0,0.1,0,0.1-0.1,0.2l0,0l0,0c0,0.1-0.1,0.2-0.1,0.4c-2.4,8.9-6.5,11.3-7.4,12    c-9.6,5.3-15.7-1.2-15.7-1.2c-3.9-3.5-6.5-10.2-6.5-17.9c0-0.9,0-1.9,0.1-2.8l0,0h32c0-9.8-3.9-17.1-9.5-20.1    c-4.6-2.5-11-2.2-11-2.2C56.5,9.6,47.3,21,47.3,35c0,14,9.2,25.4,20.5,25.4c0,0,15.2,1.6,20.5-18.4c0-0.1,0-0.1,0-0.2    C88.4,41,87.8,40.3,87.1,40.3z M61.8,15.7c2.2-2.5,4.5-3.6,7.8-3.6c5.5,0,8.6,4.7,9.6,10.1c0.3,1.7,0.7,3.5,0.7,7    c-9.9,0-23.2,0-23.2,0C58.1,20.7,59.7,18.2,61.8,15.7z"/><path d="M119.7,12.3c-1.6-1.4-3.6-2.1-6.1-2.1c-3.8,0-6.8,1.9-9.1,5.5v-5.1H86.3c-0.5,0-0.8,0.4-0.8,0.9c0,0.5,0.4,0.9,0.8,0.9    l3.5,0.2c3.2,0.3,5.3,2.3,5.3,5.2V57l0,0.2c0,0.7-0.9,1.3-1.9,1.3l-5.2,0.2c-0.3,0-0.6,0.3-0.6,0.6c0,0.3,0.3,0.6,0.6,0.6h11.8    h0.1H112c0.3,0,0.6-0.3,0.6-0.6c0-0.3-0.3-0.6-0.6-0.6l-5.4-0.2c-1.1,0-2-0.6-2-1.3l0-0.2V20.4c0.3-1.1,0.7-2.1,1.2-2.9    c1.5-2.6,3.3-3.9,5.4-3.9c1.7,0,2.5,0.5,2.5,1.7c0,0.3-0.3,0.8-1,1.5c-0.7,0.7-1,1.6-1,2.7c0,1.2,0.5,2.1,1.4,2.9    c0.9,0.8,2.1,1.2,3.4,1.1c1.7,0,3-0.6,4.1-1.7c1.1-1.1,1.6-2.5,1.6-4.2C122.1,15.5,121.3,13.7,119.7,12.3z"/><g><path d="M53,10.5H38.3c-0.4,0-0.8,0.4-0.8,0.8c0,0.4,0.4,0.8,0.8,0.8h4.1c0.5,0,0.9,0.4,0.9,0.9c0,0.2-0.1,0.2-0.1,0.4l0,0h0     L32.9,45.1l-12.8-31L20,13.7c-0.1-0.1,0-0.3,0-0.4c0-0.6,0.7-1.2,1.3-1.2h5.3c0.4,0,0.8-0.4,0.8-0.8c0-0.4-0.4-0.8-0.8-0.8h-23     c-0.4,0-0.8,0.4-0.8,0.8c0,0.4,0.4,0.8,0.8,0.8h4.6c1.1,0,1.6,0.4,1.9,1.4l0.8,1.9l18,43.7c0.3,0.6,0.5,1,0.9,1     c0.5,0,0.7-0.3,0.9-1L45.8,14c0.1-0.2,0.1-0.4,0.2-0.5h0c0.5-0.8,1.4-1.4,2.4-1.4H53c0.4,0,0.8-0.4,0.8-0.8     C53.7,10.8,53.4,10.5,53,10.5z"/><path d="M28.8,59.6l0,0.1L28.8,59.6C28.8,59.6,28.8,59.6,28.8,59.6z"/></g></g></g></svg>